<svg width="48" height="41" viewBox="0 0 48 41" fill="none" xmlns="http://www.w3.org/2000/svg">
<path d="M3.29395 35.7471C3.52434 35.7471 3.7538 35.7935 3.96875 35.8848C4.18367 35.976 4.38153 36.1108 4.5498 36.2832C4.71822 36.4558 4.8532 36.6632 4.94629 36.8936C5.03934 37.1238 5.08783 37.3717 5.08789 37.623C5.08789 37.8745 5.0394 38.1231 4.94629 38.3535C4.8532 38.5839 4.71821 38.7912 4.5498 38.9639C4.38153 39.1363 4.18367 39.271 3.96875 39.3623C3.75379 39.4536 3.52434 39.5 3.29395 39.5C3.06374 39.5 2.83492 39.4534 2.62012 39.3623C2.40508 39.271 2.20643 39.1364 2.03809 38.9639C1.86969 38.7912 1.73468 38.5838 1.6416 38.3535C1.5485 38.1231 1.5 37.8745 1.5 37.623C1.50006 37.3717 1.54857 37.1238 1.6416 36.8936C1.73468 36.6632 1.86969 36.4558 2.03809 36.2832C2.20643 36.1107 2.40508 35.9761 2.62012 35.8848C2.83492 35.7936 3.06373 35.7471 3.29395 35.7471ZM46.5 36.9531V38.2939H14.2061V36.9531H46.5ZM3.29395 18.623C3.52434 18.623 3.7538 18.6705 3.96875 18.7617C4.18365 18.853 4.38156 18.9877 4.5498 19.1602C4.71805 19.3326 4.85323 19.5394 4.94629 19.7695C5.0394 19.9999 5.08789 20.2485 5.08789 20.5C5.08789 20.7515 5.0394 21.0001 4.94629 21.2305C4.85323 21.4606 4.71805 21.6674 4.5498 21.8398C4.38156 22.0123 4.18365 22.147 3.96875 22.2383C3.75379 22.3295 3.52434 22.377 3.29395 22.377C3.06367 22.3769 2.83497 22.3295 2.62012 22.2383C2.40508 22.147 2.20643 22.0124 2.03809 21.8398C1.86989 21.6674 1.73463 21.4606 1.6416 21.2305C1.54849 21.0001 1.5 20.7515 1.5 20.5C1.5 20.2485 1.54849 19.9999 1.6416 19.7695C1.73463 19.5394 1.86989 19.3326 2.03809 19.1602C2.20643 18.9876 2.40507 18.853 2.62012 18.7617C2.83497 18.6705 3.06367 18.6231 3.29395 18.623ZM46.5 19.8291V21.1709H14.2061V19.8291H46.5ZM3.29395 1.5C3.52434 1.5 3.75379 1.54643 3.96875 1.6377C4.18367 1.72897 4.38153 1.86369 4.5498 2.03613C4.71821 2.20875 4.8532 2.41615 4.94629 2.64648C5.0394 2.8769 5.08789 3.12546 5.08789 3.37695C5.08783 3.62828 5.03934 3.87617 4.94629 4.10645C4.8532 4.33679 4.71821 4.54418 4.5498 4.7168C4.38154 4.88924 4.18367 5.02395 3.96875 5.11523C3.75379 5.2065 3.52434 5.25293 3.29395 5.25293C3.06373 5.25291 2.83492 5.20638 2.62012 5.11523C2.40507 5.02393 2.20643 4.88935 2.03809 4.7168C1.86969 4.54418 1.73468 4.33678 1.6416 4.10645C1.54857 3.87619 1.50006 3.62825 1.5 3.37695C1.5 3.12549 1.5485 2.87689 1.6416 2.64648C1.73468 2.41615 1.86969 2.20875 2.03809 2.03613C2.20643 1.86358 2.40507 1.729 2.62012 1.6377C2.83492 1.54655 3.06373 1.50002 3.29395 1.5ZM46.5 2.70605V4.04688H14.2061V2.70605H46.5Z" fill="#554657" stroke="#554657" stroke-width="3"/>
</svg>
