<svg width="45" height="45" viewBox="0 0 45 45" fill="none" xmlns="http://www.w3.org/2000/svg">
<path d="M22.3291 26.6201C25.2806 26.6201 28.1856 26.9672 31.0469 27.6602C33.9021 28.3516 36.7208 29.3889 39.5029 30.7783V30.7793C40.6033 31.3485 41.4843 32.1676 42.1592 33.2666C42.8257 34.3521 43.1582 35.5335 43.1582 36.8428V43.1582H1.5V36.8428C1.50004 35.5335 1.83251 34.3521 2.49902 33.2666C3.17381 32.1677 4.05406 31.3475 5.1543 30.7783C7.93673 29.3887 10.7559 28.3517 13.6113 27.6602C16.4726 26.9672 19.3776 26.6201 22.3291 26.6201ZM22.3291 29.2021C19.6023 29.2021 16.9006 29.5312 14.2266 30.1875C11.5528 30.8438 8.91193 31.8263 6.30664 33.1289L6.27832 33.1436L6.24902 33.1592C5.59844 33.5207 5.07392 34.0312 4.68652 34.665C4.28046 35.3295 4.08208 36.0676 4.08203 36.8428V40.5762H40.5762V36.8428C40.5761 36.0676 40.3777 35.3295 39.9717 34.665C39.5843 34.0312 39.0598 33.5207 38.4092 33.1592L38.3799 33.1436L38.3516 33.1289L37.373 32.6553C35.0857 31.5856 32.7713 30.7618 30.4316 30.1875C27.7576 29.5312 25.0559 29.2021 22.3291 29.2021ZM22.3291 1.5C24.9982 1.5 27.246 2.43268 29.1533 4.33984C31.0607 6.24718 31.9941 8.49577 31.9941 11.165C31.994 13.8341 31.0605 16.082 29.1533 17.9893C27.246 19.8964 24.9983 20.8291 22.3291 20.8291C19.66 20.8291 17.4122 19.8964 15.5049 17.9893C13.5977 16.082 12.6652 13.8341 12.665 11.165C12.665 8.49577 13.5976 6.24718 15.5049 4.33984C17.4122 2.43268 19.66 1.5 22.3291 1.5ZM22.3291 4.08203C20.3931 4.08203 18.6984 4.78904 17.3262 6.16113C15.9539 7.53339 15.2471 9.22893 15.2471 11.165C15.2472 13.101 15.954 14.7958 17.3262 16.168C18.6984 17.5401 20.3931 18.2471 22.3291 18.2471C24.2651 18.2471 25.9598 17.5401 27.332 16.168C28.7042 14.7958 29.411 13.101 29.4111 11.165C29.4111 9.22892 28.7043 7.53339 27.332 6.16113C25.9598 4.78904 24.2651 4.08203 22.3291 4.08203Z" fill="#554657" stroke="#554657" stroke-width="3"/>
</svg>
